<?xml version="1.0" standalone="no"?>
<!DOCTYPE svg PUBLIC "-//W3C//DTD SVG 20010904//EN"
 "http://www.w3.org/TR/2001/REC-SVG-20010904/DTD/svg10.dtd">
<svg version="1.0" xmlns="http://www.w3.org/2000/svg"
 width="900.000000pt" height="900.000000pt" viewBox="0 0 900.000000 900.000000"
 preserveAspectRatio="xMidYMid meet">

<g transform="translate(0.000000,900.000000) scale(0.100000,-0.100000)"
fill="#000000" stroke="none">
<path d="M4195 8793 c-732 -48 -1490 -312 -2115 -734 -247 -167 -471 -357
-648 -549 -629 -684 -1016 -1521 -1123 -2426 -28 -237 -31 -626 -5 -859 68
-622 276 -1236 603 -1780 303 -503 710 -926 1213 -1260 565 -375 1171 -600
1860 -692 190 -25 756 -25 942 0 835 113 1597 440 2210 947 719 595 1254 1532
1422 2490 133 760 52 1507 -244 2255 -40 102 -218 449 -299 585 -225 373 -488
708 -723 917 -736 655 -1600 1028 -2552 1103 -119 9 -422 11 -541 3z m2173
-2518 c73 -31 120 -99 129 -189 6 -55 -1 -96 -72 -426 -25 -118 -88 -415 -140
-660 -52 -245 -151 -710 -220 -1035 -69 -324 -155 -729 -191 -900 -36 -170
-74 -345 -86 -388 -34 -128 -99 -197 -189 -197 -86 0 -154 33 -316 153 -144
106 -803 595 -869 644 l-31 23 -189 -182 c-323 -313 -351 -338 -417 -369 -80
-38 -107 -38 -107 -2 0 38 68 893 77 974 l8 66 375 343 c572 524 884 809 1235
1128 176 161 327 303 335 317 20 33 2 50 -50 49 -32 -1 -93 -36 -372 -211
-183 -116 -682 -430 -1108 -698 -426 -268 -817 -514 -869 -547 -137 -88 -128
-87 -262 -45 -63 19 -242 74 -399 122 -157 47 -325 99 -375 115 -49 15 -122
37 -160 49 -72 21 -116 54 -129 97 -10 34 22 101 64 134 49 39 87 55 446 193
164 63 470 181 679 262 650 251 1076 416 1180 455 55 21 224 87 375 145 151
59 381 147 510 197 129 49 375 144 545 210 512 199 522 202 593 173z"/>
</g>
</svg>
