<?xml version="1.0" standalone="no"?>
<!DOCTYPE svg PUBLIC "-//W3C//DTD SVG 20010904//EN"
 "http://www.w3.org/TR/2001/REC-SVG-20010904/DTD/svg10.dtd">
<svg version="1.0" xmlns="http://www.w3.org/2000/svg"
 width="626.000000pt" height="626.000000pt" viewBox="0 0 626.000000 626.000000"
 preserveAspectRatio="xMidYMid meet">

<g transform="translate(0.000000,626.000000) scale(0.100000,-0.100000)"
fill="#000000" stroke="none">
<path d="M1053 5018 c112 -150 515 -691 896 -1202 l692 -929 -44 -46 c-110
-115 -1724 -1847 -1730 -1859 -7 -9 32 -12 176 -12 l184 0 384 412 c1034 1111
1191 1278 1198 1273 5 -2 149 -194 322 -426 173 -231 455 -609 626 -840 l313
-419 670 0 671 0 -935 1243 -934 1243 590 635 c325 349 709 761 855 917 l263
282 -183 0 -184 0 -749 -804 c-412 -443 -751 -805 -754 -805 -3 -1 -277 361
-609 804 l-604 805 -658 0 -658 0 202 -272z m1133 -186 c104 -141 2621 -3503
2657 -3550 7 -9 -54 -12 -300 -12 l-310 0 -255 338 c-140 185 -420 558 -623
827 -203 270 -457 607 -565 750 -474 628 -1356 1800 -1363 1812 -7 11 51 13
310 13 l318 -1 131 -177z"/>
</g>
</svg>
